<?xml version="1.0" encoding="UTF-8" standalone="no"?>
<svg xmlns="http://www.w3.org/2000/svg" width="128" height="128" viewBox="0 0 33.5 33.5" version="1.1" id="neqo">
   <style>
     path, circle { fill: none; stroke: #000; stroke-width: 0.6px; stroke-linecap: round; }
     #qo, #n, #o { fill: #8c65f4; }
   </style>
   <g id="q">
     <path id="qt" d="m 19.698451,22.756746 c 2.59981,1.110499 3.20241,2.698639 4.57878,3.626122 2.49291,1.679878 4.77056,-0.808783 5.28211,-2.033765" />
     <circle id="qo" r="7.714983" cy="17.250134" cx="16.2034" />
   </g>
   <path id="n" d="m 11.32951,12.687264 c 0.15897,-2.830882 2.03368,-5.407066 2.48595,-5.555718 0.54884,-0.180397 0.16037,4.859654 1.28063,5.028396 0.53598,0.08073 0.9577,-1.716749 1.39364,-2.61778" />
   <path id="e" d="m 4.30912,16.258906 c 5.6502,-2.150586 9.72015,-0.516832 10.66376,-0.962048 0.50168,-0.236699 0.79089,-1.030961 0.44386,-1.278423 -0.63674,-0.454066 -2.18035,0.391368 -2.72254,1.300487 -0.48748,0.817366 -0.34088,1.521232 0.2066,1.575964 2.41266,0.241193 4.51697,-4.393275 13.51437,-5.589867" />
   <path id="o" d="m 17.42293,7.297432 c -0.78146,0.240903 -1.5287,4.522251 0.37749,5.041622 1.0723,0.29217 2.09691,-1.137416 1.0995,-2.721783 C 17.78261,7.84247 18.19229,7.004833 17.42293,7.297432 Z" />
</svg>
